<mxfile host="Electron" modified="2024-05-17T10:01:40.306Z" agent="Mozilla/5.0 (Windows NT 10.0; Win64; x64) AppleWebKit/537.36 (KHTML, like Gecko) draw.io/24.1.0 Chrome/120.0.6099.109 Electron/28.1.0 Safari/537.36" etag="1sVvK96zlr6QoZmORKCV" version="24.1.0" type="device">
  <diagram name="Page-1" id="NbyqfapjGb07cOX-wwKP">
    <mxGraphModel dx="2840" dy="1885" grid="1" gridSize="10" guides="1" tooltips="1" connect="1" arrows="1" fold="1" page="1" pageScale="1" pageWidth="2336" pageHeight="1654" math="0" shadow="0">
      <root>
        <mxCell id="0" />
        <mxCell id="1" parent="0" />
        <mxCell id="FwMr0oIluwredrlITus2-1" value="Admin" style="shape=umlActor;verticalLabelPosition=bottom;verticalAlign=top;html=1;fontSize=40;" vertex="1" parent="1">
          <mxGeometry x="60" y="680" width="210" height="360" as="geometry" />
        </mxCell>
        <mxCell id="FwMr0oIluwredrlITus2-3" value="" style="rounded=0;whiteSpace=wrap;html=1;" vertex="1" parent="1">
          <mxGeometry x="320" y="90" width="1650" height="1490" as="geometry" />
        </mxCell>
        <mxCell id="FwMr0oIluwredrlITus2-4" value="User" style="shape=umlActor;verticalLabelPosition=bottom;verticalAlign=top;html=1;fontSize=40;" vertex="1" parent="1">
          <mxGeometry x="2070" y="680" width="210" height="360" as="geometry" />
        </mxCell>
        <mxCell id="FwMr0oIluwredrlITus2-6" value="Stream Sage Use Cases" style="text;html=1;align=center;verticalAlign=middle;whiteSpace=wrap;rounded=0;fontFamily=Helvetica;fontSize=40;fontColor=default;" vertex="1" parent="1">
          <mxGeometry x="828" y="70" width="680" height="10" as="geometry" />
        </mxCell>
        <mxCell id="FwMr0oIluwredrlITus2-7" value="" style="ellipse;whiteSpace=wrap;html=1;strokeColor=default;align=center;verticalAlign=top;fontFamily=Helvetica;fontSize=40;fontColor=default;fillColor=default;" vertex="1" parent="1">
          <mxGeometry x="410" y="160" width="230" height="120" as="geometry" />
        </mxCell>
        <mxCell id="FwMr0oIluwredrlITus2-8" value="&lt;font style=&quot;font-size: 24px;&quot;&gt;CRUD Movies&lt;/font&gt;" style="text;html=1;align=center;verticalAlign=middle;whiteSpace=wrap;rounded=0;fontFamily=Helvetica;fontSize=40;fontColor=default;" vertex="1" parent="1">
          <mxGeometry x="440" y="195" width="170" height="50" as="geometry" />
        </mxCell>
        <mxCell id="FwMr0oIluwredrlITus2-9" value="" style="ellipse;whiteSpace=wrap;html=1;strokeColor=default;align=center;verticalAlign=top;fontFamily=Helvetica;fontSize=40;fontColor=default;fillColor=default;" vertex="1" parent="1">
          <mxGeometry x="410" y="330" width="230" height="120" as="geometry" />
        </mxCell>
        <mxCell id="FwMr0oIluwredrlITus2-10" value="&lt;font style=&quot;font-size: 24px;&quot;&gt;CRUD Users&lt;/font&gt;" style="text;html=1;align=center;verticalAlign=middle;whiteSpace=wrap;rounded=0;fontFamily=Helvetica;fontSize=40;fontColor=default;" vertex="1" parent="1">
          <mxGeometry x="440" y="365" width="170" height="50" as="geometry" />
        </mxCell>
        <mxCell id="FwMr0oIluwredrlITus2-11" value="" style="ellipse;whiteSpace=wrap;html=1;strokeColor=default;align=center;verticalAlign=top;fontFamily=Helvetica;fontSize=40;fontColor=default;fillColor=default;" vertex="1" parent="1">
          <mxGeometry x="380" y="500" width="310" height="110" as="geometry" />
        </mxCell>
        <mxCell id="FwMr0oIluwredrlITus2-12" value="&lt;font style=&quot;font-size: 24px;&quot;&gt;CRUD Genres/Actors/Directors&lt;/font&gt;" style="text;html=1;align=center;verticalAlign=middle;whiteSpace=wrap;rounded=0;fontFamily=Helvetica;fontSize=40;fontColor=default;" vertex="1" parent="1">
          <mxGeometry x="450" y="515" width="170" height="50" as="geometry" />
        </mxCell>
        <mxCell id="FwMr0oIluwredrlITus2-13" value="" style="ellipse;whiteSpace=wrap;html=1;strokeColor=default;align=center;verticalAlign=top;fontFamily=Helvetica;fontSize=40;fontColor=default;fillColor=default;" vertex="1" parent="1">
          <mxGeometry x="420" y="660" width="230" height="120" as="geometry" />
        </mxCell>
        <mxCell id="FwMr0oIluwredrlITus2-14" value="&lt;span style=&quot;font-size: 24px;&quot;&gt;Make Admin&lt;/span&gt;" style="text;html=1;align=center;verticalAlign=middle;whiteSpace=wrap;rounded=0;fontFamily=Helvetica;fontSize=40;fontColor=default;" vertex="1" parent="1">
          <mxGeometry x="450" y="695" width="170" height="50" as="geometry" />
        </mxCell>
        <mxCell id="FwMr0oIluwredrlITus2-15" value="" style="ellipse;whiteSpace=wrap;html=1;strokeColor=default;align=center;verticalAlign=top;fontFamily=Helvetica;fontSize=40;fontColor=default;fillColor=default;" vertex="1" parent="1">
          <mxGeometry x="420" y="850" width="230" height="120" as="geometry" />
        </mxCell>
        <mxCell id="FwMr0oIluwredrlITus2-16" value="&lt;span style=&quot;font-size: 24px;&quot;&gt;View Activity&lt;/span&gt;" style="text;html=1;align=center;verticalAlign=middle;whiteSpace=wrap;rounded=0;fontFamily=Helvetica;fontSize=40;fontColor=default;" vertex="1" parent="1">
          <mxGeometry x="450" y="880" width="170" height="50" as="geometry" />
        </mxCell>
        <mxCell id="FwMr0oIluwredrlITus2-17" value="" style="ellipse;whiteSpace=wrap;html=1;strokeColor=default;align=center;verticalAlign=top;fontFamily=Helvetica;fontSize=40;fontColor=default;fillColor=default;" vertex="1" parent="1">
          <mxGeometry x="410" y="1040" width="230" height="120" as="geometry" />
        </mxCell>
        <mxCell id="FwMr0oIluwredrlITus2-18" value="&lt;span style=&quot;font-size: 24px;&quot;&gt;View Analytics&lt;/span&gt;" style="text;html=1;align=center;verticalAlign=middle;whiteSpace=wrap;rounded=0;fontFamily=Helvetica;fontSize=40;fontColor=default;" vertex="1" parent="1">
          <mxGeometry x="440" y="1075" width="170" height="50" as="geometry" />
        </mxCell>
        <mxCell id="FwMr0oIluwredrlITus2-19" value="" style="ellipse;whiteSpace=wrap;html=1;strokeColor=default;align=center;verticalAlign=top;fontFamily=Helvetica;fontSize=40;fontColor=default;fillColor=default;" vertex="1" parent="1">
          <mxGeometry x="410" y="1200" width="230" height="120" as="geometry" />
        </mxCell>
        <mxCell id="FwMr0oIluwredrlITus2-20" value="&lt;span style=&quot;font-size: 24px;&quot;&gt;Customize Dashboard&lt;/span&gt;" style="text;html=1;align=center;verticalAlign=middle;whiteSpace=wrap;rounded=0;fontFamily=Helvetica;fontSize=40;fontColor=default;" vertex="1" parent="1">
          <mxGeometry x="440" y="1230" width="170" height="50" as="geometry" />
        </mxCell>
        <mxCell id="FwMr0oIluwredrlITus2-21" value="" style="ellipse;whiteSpace=wrap;html=1;strokeColor=default;align=center;verticalAlign=top;fontFamily=Helvetica;fontSize=40;fontColor=default;fillColor=default;" vertex="1" parent="1">
          <mxGeometry x="1198" y="170" width="230" height="120" as="geometry" />
        </mxCell>
        <mxCell id="FwMr0oIluwredrlITus2-22" value="&lt;font style=&quot;font-size: 24px;&quot;&gt;CRUD Reviews&lt;/font&gt;" style="text;html=1;align=center;verticalAlign=middle;whiteSpace=wrap;rounded=0;fontFamily=Helvetica;fontSize=40;fontColor=default;" vertex="1" parent="1">
          <mxGeometry x="1228" y="205" width="170" height="50" as="geometry" />
        </mxCell>
        <mxCell id="FwMr0oIluwredrlITus2-23" value="" style="ellipse;whiteSpace=wrap;html=1;strokeColor=default;align=center;verticalAlign=top;fontFamily=Helvetica;fontSize=40;fontColor=default;fillColor=default;" vertex="1" parent="1">
          <mxGeometry x="1198" y="340" width="230" height="120" as="geometry" />
        </mxCell>
        <mxCell id="FwMr0oIluwredrlITus2-24" value="&lt;span style=&quot;font-size: 24px;&quot;&gt;CRUD Interpretations&lt;/span&gt;" style="text;html=1;align=center;verticalAlign=middle;whiteSpace=wrap;rounded=0;fontFamily=Helvetica;fontSize=40;fontColor=default;" vertex="1" parent="1">
          <mxGeometry x="1228" y="375" width="170" height="50" as="geometry" />
        </mxCell>
        <mxCell id="FwMr0oIluwredrlITus2-25" value="" style="ellipse;whiteSpace=wrap;html=1;strokeColor=default;align=center;verticalAlign=top;fontFamily=Helvetica;fontSize=40;fontColor=default;fillColor=default;" vertex="1" parent="1">
          <mxGeometry x="1210" y="510" width="268" height="110" as="geometry" />
        </mxCell>
        <mxCell id="FwMr0oIluwredrlITus2-26" value="&lt;span style=&quot;font-size: 24px;&quot;&gt;Register &amp;amp; Login&lt;/span&gt;" style="text;html=1;align=center;verticalAlign=middle;whiteSpace=wrap;rounded=0;fontFamily=Helvetica;fontSize=40;fontColor=default;" vertex="1" parent="1">
          <mxGeometry x="1228" y="540" width="232" height="50" as="geometry" />
        </mxCell>
        <mxCell id="FwMr0oIluwredrlITus2-27" value="" style="ellipse;whiteSpace=wrap;html=1;strokeColor=default;align=center;verticalAlign=top;fontFamily=Helvetica;fontSize=40;fontColor=default;fillColor=default;" vertex="1" parent="1">
          <mxGeometry x="1530" y="707" width="292" height="120" as="geometry" />
        </mxCell>
        <mxCell id="FwMr0oIluwredrlITus2-28" value="&lt;span style=&quot;font-size: 24px;&quot;&gt;View Recommeendations&lt;/span&gt;" style="text;html=1;align=center;verticalAlign=middle;whiteSpace=wrap;rounded=0;fontFamily=Helvetica;fontSize=40;fontColor=default;" vertex="1" parent="1">
          <mxGeometry x="1559" y="730" width="252" height="50" as="geometry" />
        </mxCell>
        <mxCell id="FwMr0oIluwredrlITus2-29" value="" style="ellipse;whiteSpace=wrap;html=1;strokeColor=default;align=center;verticalAlign=top;fontFamily=Helvetica;fontSize=40;fontColor=default;fillColor=default;" vertex="1" parent="1">
          <mxGeometry x="1208" y="860" width="230" height="120" as="geometry" />
        </mxCell>
        <mxCell id="FwMr0oIluwredrlITus2-30" value="&lt;span style=&quot;font-size: 24px;&quot;&gt;Search Movies&lt;/span&gt;" style="text;html=1;align=center;verticalAlign=middle;whiteSpace=wrap;rounded=0;fontFamily=Helvetica;fontSize=40;fontColor=default;" vertex="1" parent="1">
          <mxGeometry x="1238" y="890" width="170" height="50" as="geometry" />
        </mxCell>
        <mxCell id="FwMr0oIluwredrlITus2-31" value="" style="ellipse;whiteSpace=wrap;html=1;strokeColor=default;align=center;verticalAlign=top;fontFamily=Helvetica;fontSize=40;fontColor=default;fillColor=default;" vertex="1" parent="1">
          <mxGeometry x="1198" y="1050" width="230" height="120" as="geometry" />
        </mxCell>
        <mxCell id="FwMr0oIluwredrlITus2-32" value="&lt;span style=&quot;font-size: 24px;&quot;&gt;Filter Movies&lt;/span&gt;" style="text;html=1;align=center;verticalAlign=middle;whiteSpace=wrap;rounded=0;fontFamily=Helvetica;fontSize=40;fontColor=default;" vertex="1" parent="1">
          <mxGeometry x="1228" y="1085" width="170" height="50" as="geometry" />
        </mxCell>
        <mxCell id="FwMr0oIluwredrlITus2-33" value="" style="ellipse;whiteSpace=wrap;html=1;strokeColor=default;align=center;verticalAlign=top;fontFamily=Helvetica;fontSize=40;fontColor=default;fillColor=default;" vertex="1" parent="1">
          <mxGeometry x="1198" y="1210" width="230" height="120" as="geometry" />
        </mxCell>
        <mxCell id="FwMr0oIluwredrlITus2-34" value="&lt;span style=&quot;font-size: 24px;&quot;&gt;Password Reset&lt;/span&gt;" style="text;html=1;align=center;verticalAlign=middle;whiteSpace=wrap;rounded=0;fontFamily=Helvetica;fontSize=40;fontColor=default;" vertex="1" parent="1">
          <mxGeometry x="1228" y="1240" width="170" height="50" as="geometry" />
        </mxCell>
        <mxCell id="FwMr0oIluwredrlITus2-35" value="" style="ellipse;whiteSpace=wrap;html=1;strokeColor=default;align=center;verticalAlign=top;fontFamily=Helvetica;fontSize=40;fontColor=default;fillColor=default;" vertex="1" parent="1">
          <mxGeometry x="1530" y="1205" width="230" height="120" as="geometry" />
        </mxCell>
        <mxCell id="FwMr0oIluwredrlITus2-36" value="&lt;span style=&quot;font-size: 24px;&quot;&gt;Contact Admin&lt;/span&gt;" style="text;html=1;align=center;verticalAlign=middle;whiteSpace=wrap;rounded=0;fontFamily=Helvetica;fontSize=40;fontColor=default;" vertex="1" parent="1">
          <mxGeometry x="1560" y="1235" width="170" height="50" as="geometry" />
        </mxCell>
        <mxCell id="FwMr0oIluwredrlITus2-37" value="" style="ellipse;whiteSpace=wrap;html=1;strokeColor=default;align=center;verticalAlign=top;fontFamily=Helvetica;fontSize=40;fontColor=default;fillColor=default;" vertex="1" parent="1">
          <mxGeometry x="1550" y="1040" width="230" height="120" as="geometry" />
        </mxCell>
        <mxCell id="FwMr0oIluwredrlITus2-38" value="&lt;span style=&quot;font-size: 24px;&quot;&gt;View Profile&lt;/span&gt;" style="text;html=1;align=center;verticalAlign=middle;whiteSpace=wrap;rounded=0;fontFamily=Helvetica;fontSize=40;fontColor=default;" vertex="1" parent="1">
          <mxGeometry x="1580" y="1070" width="170" height="50" as="geometry" />
        </mxCell>
        <mxCell id="FwMr0oIluwredrlITus2-39" value="" style="ellipse;whiteSpace=wrap;html=1;strokeColor=default;align=center;verticalAlign=top;fontFamily=Helvetica;fontSize=40;fontColor=default;fillColor=default;" vertex="1" parent="1">
          <mxGeometry x="1570" y="890" width="230" height="120" as="geometry" />
        </mxCell>
        <mxCell id="FwMr0oIluwredrlITus2-40" value="&lt;span style=&quot;font-size: 24px;&quot;&gt;Update Profile&lt;/span&gt;" style="text;html=1;align=center;verticalAlign=middle;whiteSpace=wrap;rounded=0;fontFamily=Helvetica;fontSize=40;fontColor=default;" vertex="1" parent="1">
          <mxGeometry x="1600" y="920" width="170" height="50" as="geometry" />
        </mxCell>
        <mxCell id="FwMr0oIluwredrlITus2-41" value="" style="ellipse;whiteSpace=wrap;html=1;strokeColor=default;align=center;verticalAlign=top;fontFamily=Helvetica;fontSize=40;fontColor=default;fillColor=default;" vertex="1" parent="1">
          <mxGeometry x="1220" y="690" width="230" height="120" as="geometry" />
        </mxCell>
        <mxCell id="FwMr0oIluwredrlITus2-42" value="&lt;span style=&quot;font-size: 24px;&quot;&gt;Logout&lt;/span&gt;" style="text;html=1;align=center;verticalAlign=middle;whiteSpace=wrap;rounded=0;fontFamily=Helvetica;fontSize=40;fontColor=default;" vertex="1" parent="1">
          <mxGeometry x="1250" y="720" width="170" height="50" as="geometry" />
        </mxCell>
        <mxCell id="FwMr0oIluwredrlITus2-43" value="" style="ellipse;whiteSpace=wrap;html=1;strokeColor=default;align=center;verticalAlign=top;fontFamily=Helvetica;fontSize=40;fontColor=default;fillColor=default;" vertex="1" parent="1">
          <mxGeometry x="1570" y="540" width="230" height="120" as="geometry" />
        </mxCell>
        <mxCell id="FwMr0oIluwredrlITus2-44" value="&lt;span style=&quot;font-size: 24px;&quot;&gt;View Trailer&lt;/span&gt;" style="text;html=1;align=center;verticalAlign=middle;whiteSpace=wrap;rounded=0;fontFamily=Helvetica;fontSize=40;fontColor=default;" vertex="1" parent="1">
          <mxGeometry x="1600" y="570" width="170" height="50" as="geometry" />
        </mxCell>
        <mxCell id="FwMr0oIluwredrlITus2-45" value="" style="ellipse;whiteSpace=wrap;html=1;strokeColor=default;align=center;verticalAlign=top;fontFamily=Helvetica;fontSize=40;fontColor=default;fillColor=default;" vertex="1" parent="1">
          <mxGeometry x="1580" y="350" width="230" height="120" as="geometry" />
        </mxCell>
        <mxCell id="FwMr0oIluwredrlITus2-46" value="&lt;span style=&quot;font-size: 24px;&quot;&gt;Watch Movie&lt;/span&gt;" style="text;html=1;align=center;verticalAlign=middle;whiteSpace=wrap;rounded=0;fontFamily=Helvetica;fontSize=40;fontColor=default;" vertex="1" parent="1">
          <mxGeometry x="1610" y="380" width="170" height="50" as="geometry" />
        </mxCell>
        <mxCell id="FwMr0oIluwredrlITus2-47" value="" style="ellipse;whiteSpace=wrap;html=1;strokeColor=default;align=center;verticalAlign=top;fontFamily=Helvetica;fontSize=40;fontColor=default;fillColor=default;" vertex="1" parent="1">
          <mxGeometry x="1590" y="180" width="230" height="120" as="geometry" />
        </mxCell>
        <mxCell id="FwMr0oIluwredrlITus2-48" value="&lt;span style=&quot;font-size: 24px;&quot;&gt;View Activity&lt;/span&gt;" style="text;html=1;align=center;verticalAlign=middle;whiteSpace=wrap;rounded=0;fontFamily=Helvetica;fontSize=40;fontColor=default;" vertex="1" parent="1">
          <mxGeometry x="1620" y="210" width="170" height="50" as="geometry" />
        </mxCell>
        <mxCell id="FwMr0oIluwredrlITus2-49" value="" style="ellipse;whiteSpace=wrap;html=1;strokeColor=default;align=center;verticalAlign=top;fontFamily=Helvetica;fontSize=40;fontColor=default;fillColor=default;" vertex="1" parent="1">
          <mxGeometry x="1360" y="1400" width="230" height="120" as="geometry" />
        </mxCell>
        <mxCell id="FwMr0oIluwredrlITus2-50" value="&lt;span style=&quot;font-size: 24px;&quot;&gt;View Leaderboard&lt;/span&gt;" style="text;html=1;align=center;verticalAlign=middle;whiteSpace=wrap;rounded=0;fontFamily=Helvetica;fontSize=40;fontColor=default;" vertex="1" parent="1">
          <mxGeometry x="1390" y="1430" width="170" height="50" as="geometry" />
        </mxCell>
        <mxCell id="FwMr0oIluwredrlITus2-51" value="" style="endArrow=none;html=1;rounded=0;fontFamily=Helvetica;fontSize=40;fontColor=default;entryX=0;entryY=0.5;entryDx=0;entryDy=0;" edge="1" parent="1" source="FwMr0oIluwredrlITus2-1" target="FwMr0oIluwredrlITus2-7">
          <mxGeometry width="50" height="50" relative="1" as="geometry">
            <mxPoint x="870" y="850" as="sourcePoint" />
            <mxPoint x="920" y="800" as="targetPoint" />
          </mxGeometry>
        </mxCell>
        <mxCell id="FwMr0oIluwredrlITus2-52" value="" style="endArrow=none;html=1;rounded=0;fontFamily=Helvetica;fontSize=40;fontColor=default;entryX=0;entryY=0.5;entryDx=0;entryDy=0;" edge="1" parent="1" target="FwMr0oIluwredrlITus2-9">
          <mxGeometry width="50" height="50" relative="1" as="geometry">
            <mxPoint x="234" y="695" as="sourcePoint" />
            <mxPoint x="410" y="235" as="targetPoint" />
          </mxGeometry>
        </mxCell>
        <mxCell id="FwMr0oIluwredrlITus2-53" value="" style="endArrow=none;html=1;rounded=0;fontFamily=Helvetica;fontSize=40;fontColor=default;entryX=0;entryY=0.5;entryDx=0;entryDy=0;" edge="1" parent="1" target="FwMr0oIluwredrlITus2-11">
          <mxGeometry width="50" height="50" relative="1" as="geometry">
            <mxPoint x="244" y="707.5" as="sourcePoint" />
            <mxPoint x="420" y="402.5" as="targetPoint" />
          </mxGeometry>
        </mxCell>
        <mxCell id="FwMr0oIluwredrlITus2-54" value="" style="endArrow=none;html=1;rounded=0;fontFamily=Helvetica;fontSize=40;fontColor=default;entryX=0;entryY=0.5;entryDx=0;entryDy=0;" edge="1" parent="1" target="FwMr0oIluwredrlITus2-13">
          <mxGeometry width="50" height="50" relative="1" as="geometry">
            <mxPoint x="254" y="717.5" as="sourcePoint" />
            <mxPoint x="390" y="565" as="targetPoint" />
          </mxGeometry>
        </mxCell>
        <mxCell id="FwMr0oIluwredrlITus2-55" value="" style="endArrow=none;html=1;rounded=0;fontFamily=Helvetica;fontSize=40;fontColor=default;entryX=0;entryY=0.5;entryDx=0;entryDy=0;" edge="1" parent="1" target="FwMr0oIluwredrlITus2-15">
          <mxGeometry width="50" height="50" relative="1" as="geometry">
            <mxPoint x="254" y="740" as="sourcePoint" />
            <mxPoint x="420" y="742.5" as="targetPoint" />
          </mxGeometry>
        </mxCell>
        <mxCell id="FwMr0oIluwredrlITus2-56" value="" style="endArrow=none;html=1;rounded=0;fontFamily=Helvetica;fontSize=40;fontColor=default;entryX=0;entryY=0.5;entryDx=0;entryDy=0;" edge="1" parent="1" target="FwMr0oIluwredrlITus2-17">
          <mxGeometry width="50" height="50" relative="1" as="geometry">
            <mxPoint x="230" y="760" as="sourcePoint" />
            <mxPoint x="396" y="930" as="targetPoint" />
          </mxGeometry>
        </mxCell>
        <mxCell id="FwMr0oIluwredrlITus2-57" value="" style="endArrow=none;html=1;rounded=0;fontFamily=Helvetica;fontSize=40;fontColor=default;entryX=0;entryY=0.5;entryDx=0;entryDy=0;" edge="1" parent="1" target="FwMr0oIluwredrlITus2-19">
          <mxGeometry width="50" height="50" relative="1" as="geometry">
            <mxPoint x="210" y="830" as="sourcePoint" />
            <mxPoint x="390" y="1170" as="targetPoint" />
          </mxGeometry>
        </mxCell>
        <mxCell id="FwMr0oIluwredrlITus2-59" value="" style="endArrow=none;html=1;rounded=0;fontFamily=Helvetica;fontSize=40;fontColor=default;entryX=0;entryY=0.5;entryDx=0;entryDy=0;exitX=1;exitY=0.5;exitDx=0;exitDy=0;" edge="1" parent="1" source="FwMr0oIluwredrlITus2-43">
          <mxGeometry width="50" height="50" relative="1" as="geometry">
            <mxPoint x="1810" y="690" as="sourcePoint" />
            <mxPoint x="2080" y="691.25" as="targetPoint" />
          </mxGeometry>
        </mxCell>
        <mxCell id="FwMr0oIluwredrlITus2-60" value="" style="endArrow=none;html=1;rounded=0;fontFamily=Helvetica;fontSize=40;fontColor=default;entryX=0;entryY=0.5;entryDx=0;entryDy=0;exitX=1;exitY=0.5;exitDx=0;exitDy=0;" edge="1" parent="1" source="FwMr0oIluwredrlITus2-45">
          <mxGeometry width="50" height="50" relative="1" as="geometry">
            <mxPoint x="1830" y="588.75" as="sourcePoint" />
            <mxPoint x="2110" y="680" as="targetPoint" />
          </mxGeometry>
        </mxCell>
        <mxCell id="FwMr0oIluwredrlITus2-61" value="" style="endArrow=none;html=1;rounded=0;fontFamily=Helvetica;fontSize=40;fontColor=default;entryX=0;entryY=0.5;entryDx=0;entryDy=0;exitX=1;exitY=0.5;exitDx=0;exitDy=0;" edge="1" parent="1" source="FwMr0oIluwredrlITus2-47">
          <mxGeometry width="50" height="50" relative="1" as="geometry">
            <mxPoint x="1830" y="375" as="sourcePoint" />
            <mxPoint x="2130" y="645" as="targetPoint" />
          </mxGeometry>
        </mxCell>
        <mxCell id="FwMr0oIluwredrlITus2-62" value="" style="endArrow=none;html=1;rounded=0;fontFamily=Helvetica;fontSize=40;fontColor=default;entryX=0;entryY=0.5;entryDx=0;entryDy=0;exitX=1;exitY=0.5;exitDx=0;exitDy=0;" edge="1" parent="1" source="FwMr0oIluwredrlITus2-39">
          <mxGeometry width="50" height="50" relative="1" as="geometry">
            <mxPoint x="1810" y="880" as="sourcePoint" />
            <mxPoint x="2080" y="881.25" as="targetPoint" />
          </mxGeometry>
        </mxCell>
        <mxCell id="FwMr0oIluwredrlITus2-63" value="" style="endArrow=none;html=1;rounded=0;fontFamily=Helvetica;fontSize=40;fontColor=default;entryX=0;entryY=0.5;entryDx=0;entryDy=0;exitX=1;exitY=0.5;exitDx=0;exitDy=0;" edge="1" parent="1" source="FwMr0oIluwredrlITus2-37">
          <mxGeometry width="50" height="50" relative="1" as="geometry">
            <mxPoint x="1810" y="1008.75" as="sourcePoint" />
            <mxPoint x="2090" y="940" as="targetPoint" />
          </mxGeometry>
        </mxCell>
        <mxCell id="FwMr0oIluwredrlITus2-64" value="" style="endArrow=none;html=1;rounded=0;fontFamily=Helvetica;fontSize=40;fontColor=default;entryX=0;entryY=0.5;entryDx=0;entryDy=0;exitX=1;exitY=0.5;exitDx=0;exitDy=0;" edge="1" parent="1" source="FwMr0oIluwredrlITus2-35">
          <mxGeometry width="50" height="50" relative="1" as="geometry">
            <mxPoint x="1730" y="1250" as="sourcePoint" />
            <mxPoint x="2040" y="1090" as="targetPoint" />
          </mxGeometry>
        </mxCell>
        <mxCell id="FwMr0oIluwredrlITus2-66" value="" style="endArrow=none;html=1;rounded=0;fontFamily=Helvetica;fontSize=40;fontColor=default;entryX=0;entryY=0.5;entryDx=0;entryDy=0;exitX=1;exitY=0.5;exitDx=0;exitDy=0;" edge="1" parent="1" source="FwMr0oIluwredrlITus2-25">
          <mxGeometry width="50" height="50" relative="1" as="geometry">
            <mxPoint x="1500" y="570" as="sourcePoint" />
            <mxPoint x="1570" y="600.63" as="targetPoint" />
          </mxGeometry>
        </mxCell>
        <mxCell id="FwMr0oIluwredrlITus2-67" value="" style="endArrow=none;html=1;rounded=0;fontFamily=Helvetica;fontSize=40;fontColor=default;entryX=0;entryY=0.5;entryDx=0;entryDy=0;exitX=1;exitY=0.5;exitDx=0;exitDy=0;" edge="1" parent="1" source="FwMr0oIluwredrlITus2-23">
          <mxGeometry width="50" height="50" relative="1" as="geometry">
            <mxPoint x="1488" y="375" as="sourcePoint" />
            <mxPoint x="1580" y="410.63" as="targetPoint" />
          </mxGeometry>
        </mxCell>
        <mxCell id="FwMr0oIluwredrlITus2-68" value="" style="endArrow=none;html=1;rounded=0;fontFamily=Helvetica;fontSize=40;fontColor=default;entryX=0;entryY=0.5;entryDx=0;entryDy=0;exitX=1;exitY=0.5;exitDx=0;exitDy=0;" edge="1" parent="1" source="FwMr0oIluwredrlITus2-21">
          <mxGeometry width="50" height="50" relative="1" as="geometry">
            <mxPoint x="1438" y="229.68" as="sourcePoint" />
            <mxPoint x="1590" y="240.31" as="targetPoint" />
          </mxGeometry>
        </mxCell>
        <mxCell id="FwMr0oIluwredrlITus2-69" value="" style="endArrow=none;html=1;rounded=0;fontFamily=Helvetica;fontSize=40;fontColor=default;entryX=0;entryY=0.5;entryDx=0;entryDy=0;exitX=1;exitY=0.5;exitDx=0;exitDy=0;" edge="1" parent="1" source="FwMr0oIluwredrlITus2-29">
          <mxGeometry width="50" height="50" relative="1" as="geometry">
            <mxPoint x="1500" y="920" as="sourcePoint" />
            <mxPoint x="1570" y="950.63" as="targetPoint" />
          </mxGeometry>
        </mxCell>
        <mxCell id="FwMr0oIluwredrlITus2-70" value="" style="endArrow=none;html=1;rounded=0;fontFamily=Helvetica;fontSize=40;fontColor=default;entryX=0;entryY=0.5;entryDx=0;entryDy=0;exitX=1;exitY=0.5;exitDx=0;exitDy=0;" edge="1" parent="1" source="FwMr0oIluwredrlITus2-31">
          <mxGeometry width="50" height="50" relative="1" as="geometry">
            <mxPoint x="1418" y="1075" as="sourcePoint" />
            <mxPoint x="1550" y="1105.63" as="targetPoint" />
          </mxGeometry>
        </mxCell>
        <mxCell id="FwMr0oIluwredrlITus2-72" value="" style="endArrow=none;html=1;rounded=0;fontFamily=Helvetica;fontSize=40;fontColor=default;entryX=0;entryY=0.5;entryDx=0;entryDy=0;exitX=1;exitY=0.5;exitDx=0;exitDy=0;" edge="1" parent="1" source="FwMr0oIluwredrlITus2-33" target="FwMr0oIluwredrlITus2-35">
          <mxGeometry width="50" height="50" relative="1" as="geometry">
            <mxPoint x="1398" y="1267.19" as="sourcePoint" />
            <mxPoint x="1520" y="1262.8200000000002" as="targetPoint" />
          </mxGeometry>
        </mxCell>
        <mxCell id="FwMr0oIluwredrlITus2-73" value="" style="endArrow=none;html=1;rounded=0;fontFamily=Helvetica;fontSize=40;fontColor=default;exitX=1;exitY=0.5;exitDx=0;exitDy=0;" edge="1" parent="1" source="FwMr0oIluwredrlITus2-49">
          <mxGeometry width="50" height="50" relative="1" as="geometry">
            <mxPoint x="1868" y="1315" as="sourcePoint" />
            <mxPoint x="2080" y="1100" as="targetPoint" />
          </mxGeometry>
        </mxCell>
        <mxCell id="FwMr0oIluwredrlITus2-74" value="" style="endArrow=none;html=1;rounded=0;fontFamily=Helvetica;fontSize=40;fontColor=default;entryX=0;entryY=0.5;entryDx=0;entryDy=0;exitX=1;exitY=0.5;exitDx=0;exitDy=0;" edge="1" parent="1" source="FwMr0oIluwredrlITus2-27">
          <mxGeometry width="50" height="50" relative="1" as="geometry">
            <mxPoint x="1940" y="780" as="sourcePoint" />
            <mxPoint x="2062" y="775.6300000000001" as="targetPoint" />
          </mxGeometry>
        </mxCell>
        <mxCell id="FwMr0oIluwredrlITus2-75" value="" style="endArrow=none;html=1;rounded=0;fontFamily=Helvetica;fontSize=40;fontColor=default;entryX=0;entryY=0.5;entryDx=0;entryDy=0;" edge="1" parent="1">
          <mxGeometry width="50" height="50" relative="1" as="geometry">
            <mxPoint x="1450" y="760" as="sourcePoint" />
            <mxPoint x="1530" y="759.3200000000002" as="targetPoint" />
          </mxGeometry>
        </mxCell>
        <mxCell id="FwMr0oIluwredrlITus2-76" value="" style="endArrow=none;html=1;rounded=0;fontFamily=Helvetica;fontSize=40;fontColor=default;entryX=0;entryY=0.5;entryDx=0;entryDy=0;" edge="1" parent="1">
          <mxGeometry width="50" height="50" relative="1" as="geometry">
            <mxPoint x="280" y="690" as="sourcePoint" />
            <mxPoint x="1210" y="564.3700000000001" as="targetPoint" />
            <Array as="points">
              <mxPoint x="740" y="610" />
            </Array>
          </mxGeometry>
        </mxCell>
        <mxCell id="FwMr0oIluwredrlITus2-77" value="" style="endArrow=none;html=1;rounded=0;fontFamily=Helvetica;fontSize=40;fontColor=default;entryX=0;entryY=0.5;entryDx=0;entryDy=0;" edge="1" parent="1" source="FwMr0oIluwredrlITus2-1">
          <mxGeometry width="50" height="50" relative="1" as="geometry">
            <mxPoint x="1054" y="748.75" as="sourcePoint" />
            <mxPoint x="1220" y="751.25" as="targetPoint" />
          </mxGeometry>
        </mxCell>
        <mxCell id="FwMr0oIluwredrlITus2-78" value="" style="endArrow=none;html=1;rounded=0;fontFamily=Helvetica;fontSize=40;fontColor=default;entryX=0;entryY=0.5;entryDx=0;entryDy=0;exitX=1;exitY=0.5;exitDx=0;exitDy=0;" edge="1" parent="1" source="FwMr0oIluwredrlITus2-7">
          <mxGeometry width="50" height="50" relative="1" as="geometry">
            <mxPoint x="1036" y="210" as="sourcePoint" />
            <mxPoint x="1198" y="220.31" as="targetPoint" />
          </mxGeometry>
        </mxCell>
        <mxCell id="FwMr0oIluwredrlITus2-79" value="&lt;font style=&quot;font-size: 24px;&quot;&gt;2 way&lt;/font&gt;" style="text;html=1;align=center;verticalAlign=middle;whiteSpace=wrap;rounded=0;fontFamily=Helvetica;fontSize=40;fontColor=default;" vertex="1" parent="1">
          <mxGeometry x="828" y="180" width="160" height="30" as="geometry" />
        </mxCell>
        <mxCell id="FwMr0oIluwredrlITus2-80" value="&lt;font style=&quot;font-size: 24px;&quot;&gt;2 way&lt;/font&gt;" style="text;html=1;align=center;verticalAlign=middle;whiteSpace=wrap;rounded=0;fontFamily=Helvetica;fontSize=40;fontColor=default;rotation=-5;" vertex="1" parent="1">
          <mxGeometry x="828" y="550" width="160" height="30" as="geometry" />
        </mxCell>
        <mxCell id="FwMr0oIluwredrlITus2-81" value="&lt;font style=&quot;font-size: 24px;&quot;&gt;2 way&lt;/font&gt;" style="text;html=1;align=center;verticalAlign=middle;whiteSpace=wrap;rounded=0;fontFamily=Helvetica;fontSize=40;fontColor=default;rotation=-5;" vertex="1" parent="1">
          <mxGeometry x="838" y="740" width="160" height="30" as="geometry" />
        </mxCell>
        <mxCell id="FwMr0oIluwredrlITus2-84" value="" style="endArrow=none;html=1;rounded=0;fontFamily=Helvetica;fontSize=40;fontColor=default;entryX=0;entryY=0.5;entryDx=0;entryDy=0;" edge="1" parent="1">
          <mxGeometry width="50" height="50" relative="1" as="geometry">
            <mxPoint x="190" y="660" as="sourcePoint" />
            <mxPoint x="1198" y="399.4" as="targetPoint" />
            <Array as="points">
              <mxPoint x="210" y="500" />
            </Array>
          </mxGeometry>
        </mxCell>
      </root>
    </mxGraphModel>
  </diagram>
</mxfile>
